<?xml version="1.0" encoding="utf-8"?>
<!-- Generator: Adobe Illustrator 19.1.0, SVG Export Plug-In . SVG Version: 6.00 Build 0)  -->
<svg version="1.1" id="Layer_1" xmlns="http://www.w3.org/2000/svg" xmlns:xlink="http://www.w3.org/1999/xlink" x="0px" y="0px"
	 viewBox="0 0 960 560" style="enable-background:new 0 0 960 560;" xml:space="preserve">
<style type="text/css">
	.st0{fill:#202020;}
</style>
<g>
	<g>
		<g>
			<g>
				<path class="st0" d="M858.4,248.9c-0.4-0.8-0.1-0.4,0.8,1.9l0.6,1.6c0,0-0.3-0.9-0.7-1.8C858.8,249.8,858.4,248.9,858.4,248.9z"
					/>
				<path class="st0" d="M860.8,264.7c-0.4,2.8-1.4,6-0.8,4.2c0.2-0.7,0.3-1.2,0.4-1.7c0.1-0.5,0.2-0.9,0.3-1.4
					c0.1-0.4,0.1-0.9,0.2-1.4c0.1-0.5,0.1-1.1,0.2-1.9c0.2-2.4,0-4.2,0-3.8c0-0.4-0.1-1.4-0.3-2.3c-0.2-1-0.4-2-0.6-2.6
					c0.9,3,1.2,7.1,0.6,11.2C860.6,265.8,860.7,264.9,860.8,264.7z"/>
				<path class="st0" d="M657.6,361.4c0,0,0.4,0,0.8,0c0.4,0,0.8,0,0.8,0C658.7,361.3,658.2,361.3,657.6,361.4z"/>
				<path class="st0" d="M515.5,337.1c1,0.4,1.5,0.5,1.6,0.4C516.1,337.2,515.3,336.9,515.5,337.1z"/>
				<path class="st0" d="M492.8,326.8c0.5,0.2,0.9,0.4,1.3,0.6C493.6,327.1,493.1,326.9,492.8,326.8z"/>
				<path class="st0" d="M657.6,361.4l-3.9-0.1C653.5,361.5,655.7,361.4,657.6,361.4z"/>
				<path class="st0" d="M845,292.6c0.6-0.6,1-1.1,1.4-1.6c-0.4,0.5-0.9,1-1.4,1.5C845,292.6,845,292.6,845,292.6z"/>
				<path class="st0" d="M720.9,351.7l1.1-0.3c0.3-0.1,0.6-0.3,0.9-0.5c0,0-0.5,0.2-1,0.4C721.4,351.5,720.9,351.7,720.9,351.7z"/>
				<path class="st0" d="M767.8,336.7c-1,0.4-1.3,0.9-1.6,1.2c0.5-0.4,1.3-0.8,2.2-1.2C768.3,336.7,768.1,336.6,767.8,336.7z"/>
				<path class="st0" d="M836.3,299.5l1.1-0.9C837.1,298.9,836.6,299.3,836.3,299.5z"/>
				<path class="st0" d="M686.3,358c-0.1-0.1-0.3-0.1-0.5-0.1C685.9,358,686,358,686.3,358z"/>
				<path class="st0" d="M383.9,68.9C383.9,68.9,383.9,69,383.9,68.9C384.1,69.2,384.1,69.3,383.9,68.9z"/>
				<path class="st0" d="M384.7,124.8l0.3-0.7c0-0.1,0-0.1,0.1-0.2L384.7,124.8z"/>
				<path class="st0" d="M451.1,308.1c0.1,0,0.1,0.1,0.2,0.1C452.5,308.6,451.8,308.4,451.1,308.1z"/>
				<path class="st0" d="M94.6,434.6c0.7-2.4,0.8-0.4,0.9,1.4c0.1,1.7,0.3,3.1,1.2-0.5c-0.2,0.3-0.5-1.4-0.8-2.5
					c-0.2-0.5-0.3-0.9-0.5-0.7C95.2,432.4,94.9,433.1,94.6,434.6z"/>
				<path class="st0" d="M844,293.5c-0.5,0.5-1,1-1.5,1.4C843.3,294.3,843.7,293.9,844,293.5z"/>
				<path class="st0" d="M96.8,435.5L96.8,435.5l0.2-0.7C96.9,435,96.8,435.2,96.8,435.5z"/>
				<path class="st0" d="M348.6,281.4c0.2,0.2,0.6,0.4,1.1,0.5C349.7,281.8,349.4,281.7,348.6,281.4z"/>
				<path class="st0" d="M425.3,300.2c0,0-0.4-0.2-0.9-0.4c-0.5-0.2-0.9-0.4-0.9-0.4C424.2,299.7,424.8,300,425.3,300.2z"/>
				<path class="st0" d="M307.5,282.9c-1.1,0-1.4-0.1-2.9,0.1c0.1,0,0.3,0.1,0.5,0.1C305.6,283,306.3,282.8,307.5,282.9z"/>
				<path class="st0" d="M265.3,289.7c0.2,0,0.5,0,0.8,0c0.4-0.1,0.9-0.3,1.3-0.4L265.3,289.7z"/>
				<path class="st0" d="M364.2,142.4c0.2-0.9,0.3-1.5,0.5-1.9C364.4,141.1,364.5,134.9,364.2,142.4z"/>
				<path class="st0" d="M844.9,292.6c-0.1,0.2-0.4,0.5-0.8,0.9c0.3-0.3,0.7-0.7,1-1C845.1,292.4,845.1,292.4,844.9,292.6z"/>
				<path class="st0" d="M306.5,290.9c0,0-1.6,0.1-3.3,0.3c-1.6,0.2-3.3,0.3-3.3,0.3C301.7,291.4,304.1,291.1,306.5,290.9z"/>
				<path class="st0" d="M297,434.8l0.6-1.4C297.3,433.9,297.1,434.4,297,434.8z"/>
				<path class="st0" d="M280.6,294.6c-1.2-0.1-2.5-0.1-3.8,0.1c-0.3,0.1-0.5,0.3-0.7,0.4c0,0,1.1-0.1,2.2-0.2
					c0.6-0.1,1.1-0.1,1.5-0.2C280.3,294.6,280.6,294.6,280.6,294.6z"/>
				<path class="st0" d="M364.7,140.5C364.7,140.5,364.7,140.5,364.7,140.5C364.7,140.5,364.7,140.5,364.7,140.5z"/>
				<path class="st0" d="M364.3,96.3c0.1,6.4,0.5,3,0.8,4.3c0.3,7.6-0.3,3.5-0.6,6.1c0.1,4.8,0.5,8.4,0.5,12c-0.1,0.3-0.1,1-0.2,0.1
					c0.2,2.5,0.2,6.3,0.1,10.1c-0.1,3.8-0.2,7.8,0,10.7c-0.1,0.4-0.1,0.7-0.2,0.8c0.3-0.9,0.7-1.1,0.9-0.9c-0.1,2.9,0.2,5.3-0.2,6.4
					c0.1-1.8-0.1-1.9-0.2-2.7l0.1,3c-0.7,2.7-0.1-4.1-0.5-4.1c0,1.5,0,3,0,4.5c0,1.5,0,3.1,0,4.6c0,3-0.1,5.8-0.3,8.1
					c-0.7,0.9,0.4-10.5-0.5-4.5l0.6-6.9c-1.2,5.3,0.3-4.2-1,0.6c-0.7,9.1-0.3,10.2-1,19.3c0.2,2.1,0.6-0.6,0.8,1.4
					c-0.4,13-2.5,10-2.4,19.6c0.2,2.5,1,3.5-0.2,10.2l-0.5-2.4c-0.5,4.4-0.4,5.7-0.3,7c0,0.7,0.1,1.3,0,2.4
					c-0.1,1.1-0.2,2.6-0.7,4.9c-0.1-1.7,0.5-6.9,0.3-5.6c-0.6,2.9-0.7,4-0.6,4.9c0.1,0.9,0.3,1.6,0,3.9l-0.9,0.9
					c-0.6,4.7-1,9.6-1.5,14.6c-0.6,5-1.2,10.2-1.9,15.4c-0.1-0.6-0.1-2.4-0.7,0c-0.4,3.3-0.9,6.6-1.6,10c-0.6,3.4-1.3,6.8-1.9,10.2
					c-0.6,3.4-1.5,6.8-2.3,10.1c-0.8,3.3-1.6,6.5-2.3,9.6c0,0-0.1,1.2-0.1,2.4c0,1.2-0.1,2.4-0.1,2.4c-0.3,1.1-0.8,2-0.7,0.7
					c-1.4,4.7,0.4,0.4,0.2,2.7c-0.6,2.8-1.3,3.5-1.1,1.7c-0.3,2.2-0.8,4.8-1.2,7.6c-0.5,2.8-1,5.9-1.7,9c-1.4,6.1-2.9,12.2-4.5,16.6
					l0.2-1.8c-2.2,6.8-0.5,8.2-3,14.4l0.2-1.3c-0.6,1.9-1.1,3.7-1.7,5.6c-0.3,1-0.5,1.9-0.8,2.9l-0.9,2.9c-1.2,3.8-2.3,7.6-3.4,11.3
					c-2.2,7.4-4.7,14.2-7.2,19.6c0.2,1.3-1.1,4.8-2.5,8.3c-0.7,1.7-1.3,3.4-1.7,4.7c-0.4,1.3-0.6,2.4-0.2,2.7c-2,4-2.9,5.3-3.9,7.1
					c-0.5,0.9-1,1.9-1.8,3.3c-0.8,1.5-1.8,3.4-3.1,6.2c-1.5,2.9-1,5-2.6,8.7l-0.9-0.3l-1.5,5.4l-2.4,2.1l-1.5,3.5
					c0.8-1.3,1.9-2.7,2-2.3c-1.1,2.8-3.1,5.9-4.8,8.3c-1.7,2.4-3.2,4-3.5,3.9c0,0-0.4,0.8-1,2c-0.6,1.1-1.5,2.7-2.4,4.2
					c-0.4,0.8-0.9,1.5-1.3,2.2c-0.4,0.7-0.8,1.4-1.2,1.9c-0.7,1.1-1.1,1.9-1.1,1.9c-0.2-0.5,1.1-2.5,1.9-4.2
					c-3.5,6.7-1.6,0.5-4.8,6.6c0.7-0.6,0.2,0.8,0.3,1c-1.3,1.2-3,3.4-5.1,5.7c-1,1.2-2,2.4-3,3.7c-1,1.2-2,2.4-2.9,3.5l0.2-1.3
					c-7,7.5-15.1,15.7-24.6,22.3c1.8-1,2.7-1.2,2.8-0.8c0.1,0.4-0.6,1.3-2,2.3l-1.8-0.2c-1.4,1.8,3.2-1.7-0.1,1.6
					c-1.8,1.2-2.6,1.3-2.7,1c-0.1-0.3,0.5-1.2,1.4-2.1c0,0-0.3,0.2-0.6,0.5c-0.4,0.3-0.9,0.7-1.4,1.1c-1.1,0.8-2.1,1.5-2.1,1.5
					c-0.4-0.1,0.5-0.9,0.6-1.5c-0.7,0.8-2.8,1.8-5,2.8c-2.2,0.9-4.4,2-5.5,3.2l-0.4-0.2c-1.3,0.6-2.5,1.2-3.6,1.7
					c-1.1,0.5-2.2,1.1-3.2,1.5c-2.1,0.9-3.9,1.7-5.7,2.4c-1.8,0.7-3.6,1.3-5.4,2c-1.9,0.6-3.9,1.1-6.1,1.8c0.1,1.1-3.5,1.6-6.1,2.9
					c-6.9,0.8-14.5,0.7-22.7,0.3c-2.9,0.1-3.3,0.2-3.4,0.4c-0.1,0.2,0.3,0.5-1,0.7c-0.4-0.8-8.4-2.2-4.1-2.1
					c-4.8-0.8-7.9-1.6-11.2-2.6c-3.3-1-7-2.1-12.8-4.5c1,0.9,2.4,1.8,1.5,1.7c-2.2-0.8-4.5-2.8-4-3l0.6,0.2
					c-3.3-1.4-6.5-3.4-9.6-5.8c-3.1-2.4-5.9-5.2-8.5-8.1c-2.6-2.9-4.8-5.8-6.9-8.6c-1.1-1.4-2-2.7-2.9-4c-0.9-1.3-1.9-2.4-2.8-3.5
					l0.4,0.5c0,0-1.7-2.3-3.2-4.7c-0.7-1.2-1.5-2.5-2-3.4c-0.5-1-0.8-1.6-0.8-1.6c-0.5-1.2-0.5-1.7-0.5-1.7c0.1,0,0.3,0.3,0.6,0.7
					c0.6,0.8,1.3,1.7,0.8-0.2c-2.9-5.4-3.8-10.3-4.1-14.8c0-0.6-0.1-1.1-0.1-1.7l0-1.7c0-1.1,0-2.2-0.1-3.4c0.1-2.3,0-4.6,0.1-7.2
					c0.5-0.9,0.8-2.1,1.2-3.3c0.4-1.3,0.8-2.7,1.2-4.2c0.5-1.5,0.9-3.1,1.3-4.8c0.5-1.7,1-3.4,1.6-5.1c2.3-7,5.6-14.1,9.1-18.2
					l-0.9,0.2c0.9-2.7,2.1-2.7,3.3-4.4c-0.6,0-2.1,2.3-1.5,0.6c3-5.1,6.5-10.1,10.4-14.9c1-1.2,2-2.3,3-3.5c1-1.2,2.1-2.3,3.1-3.4
					c2.1-2.3,4.4-4.5,6.6-6.7c9-8.7,18.8-16.6,28.8-23.9c1.8-1.3,2.8-2.4,3.5-3.2c0.7-0.9,1.1-1.6,1.5-2.3c0.4-0.7,1-1.5,2-2.4
					c0.5-0.4,1.2-0.9,2-1.5c0.9-0.5,1.9-1.1,3.2-1.7l-2,2.8c7.1-5.8,15.1-10.6,23.3-15c2.1-1.1,4.1-2.2,6.2-3.2
					c2.1-1,4.1-2.1,6.2-3.1c4.2-2,8.2-4,12.3-6c-0.9,0.7-0.8,1-2.4,1.7c1-0.2,2.2-0.6,3.6-1.1c0.7-0.3,1.4-0.6,2.1-0.9
					c0.7-0.3,1.4-0.6,2.1-0.9c2.8-1.3,5-2.5,4.9-2.9c2.7-0.9,0.8,0.4,2.6,0.2c1.9-0.4,4-1.4,6-2.4c2-0.9,3.8-1.6,4.9-1.5
					c0.4,0-0.9,0.6-1.6,0.9c1.1-0.6,3.9-1.4,6-2.1c2.2-0.7,3.8-1.2,2.5-1.4c1.7-0.3,3.2-0.8,4.8-1.2c1.6-0.4,3.1-0.8,4.5-1.2
					c2.9-0.9,5.7-1.5,8.4-1.8c0.8-0.5,1.9-0.8,3.1-1.1c1.2-0.2,2.6-0.4,3.9-0.6c2.6-0.4,4.8-0.8,5.2-1.6c-0.1,0.8,2.9,0.7,6.4,0.2
					c3.5-0.4,7.6-1.1,9.7-1.8c-1.4,0.6,3.7,0.2,2.1,1c2.4-0.2,4.7-0.5,6.3-0.8c1.6-0.3,2.5-0.6,2-1c2.3,0.4,4.5,0.4,6.7,0.3
					c2.2-0.1,4.3-0.3,6.3-0.5c4-0.3,7.5-0.5,10,0.8c14.4-0.3,27.8,0.7,40.7,2.9c-0.4,0.7-3.9,0.1-7.3-0.5c-3.4-0.5-6.7-0.9-6.6-0.1
					c12.2,1.2,19.5,1.4,31.3,4.9c3,1-1.9,0.2-3,0.1c12.1,2.4,22.9,6.8,33.5,9.8c-0.1,0.1-1.2-0.1-2.3-0.4c2.1,0.7,4.7,1.9,4.7,1.2
					l-2.1-0.6c-2.9-2.1,8.8,1,9.4,0.8c-4.1,0.4,10.1,4.4,3.7,4.5c1.4,0.4,3.2,0.8,3,0.2c1.9,0.9,2.5,1.4,0.3,1.1
					c7.4,2.6,5.1,0.9,11.7,3.5c-0.1,0.3-1.5-0.2-2.3-0.1c3.6,0.8,7.1,1.6,12.6,4.1c-0.4,0,0.1,0.5-1.5-0.2
					c9.6,3.8,16.8,5.3,27.1,10.1c-3.6-0.1,3.4,1.9,3.5,3.1l5.8,1.9l-2.1-1.4c2.5,1,4.9,1.7,7.2,2.5c2.3,0.7,4.5,1.5,6.6,2.4l-3.9-1
					c0,0,2.4,0.8,4.7,1.7c1.2,0.4,2.4,0.8,3.2,1.2c0.9,0.3,1.5,0.5,1.5,0.5s-1.3-0.6-2.6-1.2c-1.3-0.6-2.6-1.2-2.6-1.2
					c5.3,1.4-0.1-1.4,6.5,1.3c-1.4-0.4,5,1.8,7.4,3.4l0,0c2.6,0.5,5.3,1.1,9,2.6c0.9,0.6-1.1,0.8-0.6,1.3c0.7,0,1.8,0.2,3.1,0.6
					c1.3,0.3,2.8,0.7,4.4,1.2c3.1,0.9,6.3,1.8,8,1.7c-1.1-0.1-1.3,0.4-1,0.6l2.3-0.1c2.3,0.9,2.7,1.1,2.2,1.4c3.6,1,3.1,0.6,2.8,0.2
					c-0.3-0.4-0.5-0.6,3.7,0.7c-0.7-0.1-0.4,0.1-1.8-0.2c4.3,1.2,8.5,2.1,12.6,2.8c4.1,0.8,8.2,1.4,12.2,2.3c2.2,1.4-7.1-1-4.5,0.3
					c11.7,1.9,24.3,2.5,35.7,3.5l-2.1-0.2c1.7-1.2,8.4,1.3,14.2,0.8c-1.4,0-1.9,0.6-1.5,0.5c2,0.1,3.9,0.2,6,0.2c2,0,4.2,0,6.4-0.1
					c2.2,0,4.6-0.2,7.2-0.3c1.3-0.1,2.6-0.1,4-0.2c1.4-0.1,2.8-0.2,4.3-0.3l-1.5,0.4c2.3,0,5.3,0,8.4-0.2c3.1-0.2,6.2-0.4,8.7-0.6
					c1.4-0.4,4.3-0.7,2.5-0.9c1.9,0,3.8,0,5.7-0.1c1.9-0.2,3.7-0.3,5.5-0.6c3.6-0.4,7.2-1.1,10.7-1.8c3.5-0.6,6.9-1.5,10.3-2.1
					c3.4-0.7,6.7-1.3,10.1-1.7c-1.6,0.3-3.7,1-2.5,0.7c0,0,2.8-0.6,5.6-1.4c2.8-0.7,5.6-1.5,5.6-1.5c-1-0.2-1.5,0.1-4,0.4
					c1.4-0.6,4.5-1.5,7.3-2.2c-5,1.6,0.2,0.6,2.4,0.2c-0.4,0,0.3-0.3,0.1-0.4c6-0.9,0.8-1,8.8-2.8l-0.4,0.3c2.9-0.9,5.6-2.1,8.7-3
					c1.4,0-3.1,1.2-3.2,1.6c2.2-0.7,4.3-1.6,6.4-2.5c2.1-0.9,4.1-1.7,6.2-2.2c-1.8,0.8-4.5,1.7-6.4,2.5c4.5-1.1,5-1.4,8.2-2.5
					l-0.3,0.1c0,0,0.5-0.2,1.2-0.4c0.7-0.2,1.6-0.6,2.6-0.9c1.9-0.7,3.7-1.3,3.7-1.3l-1.9,0.6c1.3-0.8,2.6-1.4,4-2
					c1.4-0.6,2.8-1.3,4.3-1.9c1.5-0.6,3-1.3,4.7-2c1.6-0.8,3.3-1.6,5-2.5c-6.8,3.6-1,0.8-1.4,1.4c1.9-0.7,4.7-1.9,4-1.4
					c3.2-1.8,5.7-2.5,10.2-5.2c0.3,0,3.5-1.8,2.9-1.2c4.2-2.3-1.1,0.4-0.8,0.1c6.5-3.7,15.6-8,24.5-14.2c1.9-1.3,3.5-2.3,4.8-3.2
					c1.3-0.9,2.4-1.7,3.5-2.5c2.1-1.6,4.3-3,7.6-5.7c1.2-0.8,0.7-0.4,0,0.2c-0.7,0.6-1.8,1.4-1.8,1.4c3.8-2.7,6.5-5,9.7-8.1
					c-0.6,0.6,0.1,0.1,1.1-0.8c2.5-2.5,1.6-1.8,4.7-5.2c-0.5,0.6-1.1,1.5-2.2,2.8c2.8-3.1,5.4-6.3,7.7-10c0.7-0.9-1.4,2.2-2.2,3.5
					c1.4-2,3.2-4.6,4.5-7c1.3-2.4,2.1-4.6,2.4-5.3c0,0-0.3,0.7-0.6,1.4c-0.3,0.7-0.7,1.4-0.7,1.4c0.7-1.6,0.4-0.8-0.1,0.4
					c-1.8,3.8-3,5.2-3.1,5.4c0,0,0.4-0.7,0.8-1.3c0.2-0.3,0.4-0.7,0.5-0.9c0.1-0.3,0.2-0.4,0.2-0.4c-0.9,1.3-2.5,3.9-4.6,6.7
					c-2.1,2.8-4.6,5.7-6.8,7.8l1.6-2c0,0-1.1,1.2-2.2,2.3c-1.1,1.1-2.2,2.3-2.2,2.3c-1,0.9-1.8,1.4,0.4-0.7
					c-1.7,1.5-2.4,2.1-3.1,2.7c-0.7,0.6-1.3,1.1-2.8,2.3c-0.3,0.2-0.2,0.1,0.1-0.1c0,0-0.8,0.7-1.7,1.4c-0.9,0.7-1.7,1.3-1.7,1.3
					c0.6-0.6-0.7,0.3,1.5-1.3c-3.1,2.3-5.8,4-7.8,5.4c-2.1,1.4-3.6,2.6-4.9,3.2l0.5-0.4c-9.1,5.8-0.7,0.8-7.4,5.3l-5,2.2l-0.8,0.8
					c-1,0.6-2.9,1.6-2.6,1.3c-3.5,2.2,0.7-0.2-1.3,1.1c-4.8,2.4-12.9,7-14.3,7.1c-1.6,1.1,4.7-2.1-0.4,0.6c-0.9,0.1-2.3,0.8-4.2,1.8
					c-0.9,0.5-1.9,1-3,1.5c-1.1,0.5-2.2,1-3.3,1.4c1.2-0.9,5.5-2.6,0.9-0.9c-1.2,0.8-3.4,1.8-5.8,2.7c-2.3,0.9-4.9,1.8-6.8,2.6
					c0,0.5-8.2,3.5-14.7,5.9c0.2-0.2-2.9,0.9-6.8,2.1c-2,0.6-4.1,1.2-6.2,1.8c-2.1,0.6-4.1,1.1-5.6,1.5l0.2-0.1
					c-0.5,0.4-2.4,1.1-4.7,1.8c-2.3,0.6-5.1,1.4-7.4,2.1c0.1-0.4,0.9-0.8,3.4-1.6l-4.4,1.1c-1,0.4-2.3,0.9-5.2,1.6l1-0.7
					c-1.5,0.3-2.9,0.7-4.4,1.1c-1.5,0.4-3,0.7-4.6,1.1c-1.6,0.4-3.2,0.7-4.9,1.1c-1.7,0.3-3.5,0.6-5.5,0.8c-0.4,0.6,6.3,0.2-1.7,2
					c-0.3-0.2-0.7-0.6,1.4-1.1c-0.7,0.1-2.4,0.7-3.9,0.8c0,0,0.8-0.2,1.6-0.5c0.8-0.3,1.6-0.5,1.6-0.5c-3.5,0.4-1.8,0.7-4.6,1.1
					c0-0.4-2.1,0-1.8-0.3c0.7-0.1,2.5-0.2,3.5-0.5c-3.2,0.4-7,0.7-8.3,0.6c0.3,0.2,0.1,0.5-2.2,0.9c-6,0.7-2.1-0.2-5.6,0
					c-1.4,0.5-5.3,0.5-5.3,1.1c-1.8,0.2-2.1-0.1-2.8-0.2c-0.8,0.1-2.1,0.3-3.5,0.4c-1.4,0.1-3.1,0.3-4.5,0.4c-2.8,0.3-4.8,0.5-3,0.7
					l0.8,0c-0.1,0-0.3,0-0.5,0.1c0,0,0,0,0,0l0,0c-10.2,1.2-21.2,0.3-31.4,0.3l0-0.2c-6.1,0.1-13.5-0.5-17.8-0.4
					c-1.8-0.2-4.2-0.8-3.4-1.1c-4.6-0.2-5.2-0.1-11.7-1.3c4.7,0.2-1.5-0.6,4.8,0.3c-3-0.5-4.8-0.8-6.6-1.2c-1.9-0.3-3.8-0.6-7-0.7
					c1.1-0.2,0-0.5-1.7-0.9c-1.7-0.4-4.1-0.8-5.5-1l4,1.2c-3.2-0.5-5.9-1-8.7-1.7l1.7-0.5c-2.9-0.9-5.8-1.5-8.5-2
					c-2.7-0.5-5.4-1-7.9-1.4c-2.6-0.4-5-1-7.3-1.6c-1.2-0.3-2.3-0.7-3.4-1.1c-1.1-0.4-2.2-0.9-3.2-1.5c-3.3-0.3,6.2,2.4,3.3,2.3
					c-5.4-1.8-10.6-4.7-12.3-5.4c-7.1-3-7.3-1-14.8-4.1c0.9,0.7,1.5,1.9-4.3,0.1c-5.3-2.1-6-3.9-2.6-2.8c1.3,0.5,1.8,0.8,1.8,0.9
					c1.8,0.5,4.1,1.2,2.1,0.1l-0.8,0.1c-2.5-1.3-9.8-4.1-7.9-4c-4.1-1.2-1.9-0.1,1,1.2c-3.3-1.5-5.9-2.6-8.6-3.7
					c-2.7-1.1-5.4-2.1-8.7-3.7c1,0.6,1.9,1.4,0.8,1c-10-4.6-4.7-1.2-11.7-4c-3.7-2.1,1.9-0.6-5.2-3.1c-4.1-2.1-0.5-1.3,1.3-0.8
					c-6.6-2-11.6-5.4-15.1-7l3.4,1.1c-2.1-0.7-3.7-1.4-5.3-2.1l1.6,1.5c-1.9-0.9-3.6-1.6-3.4-1.9c-2.2-0.4,1.1,1.8-3.2,0.7
					c-2.5-1.4-8.1-2.9-8.7-4.2c8.1,3.7-0.5-1.3,6.5,1.4c-1.4-0.4-3-1.1-5-2c-0.3-0.2,0.4-0.1,0.9,0.1c-7.6-4.1-4-0.4-12.3-3.7
					c1.3-0.1-1.5-1.8-2.9-2.2c3.3,1.3,1.3,1.5-2,0.8c-5.2-2.4-5.9-1.8-8.7-2.9l3.1,1.4c-1.3,0.2-3.9-0.9-7.7-2
					c-0.2-0.5,3.5,0.9,2.2,0.2c-4.5-0.4-9-4.3-15.1-5.4c-2.6-1.2,0.1-1.1-2.3-2.1c-1.7-0.3-3-0.7-4.1-1c-1.1-0.3-2-0.7-2.9-1
					c-1.8-0.7-3.6-1.5-7.2-2.1c1.8,1.3,2.2,1.1-2.9,0.7c0,0,0.7,0.1,1.8,0.3c1.1,0.2,2.6,0.5,4,0.8c2.9,0.7,5.8,1.3,5.8,1.3
					l-7.7-0.9c3.4,1,7.4,1.5,9.5,2.2c-3.7-0.3-3.3-0.4-1.8,0.7c-2.2-1.2-4.6-1.7-7.1-2.1c-2.5-0.4-5.1-0.7-7.8-1.8l0.6-1.9
					c-8.2-2.8-15.1-2.2-26-4l3.5,0.8c-0.8,0.3-2.5,0.1-4.4-0.1c-1-0.1-2-0.3-3-0.4c-1-0.1-2-0.2-2.9-0.2c0.4-0.7-1.8-1.1-3.3-1.7
					c0.1,0.3-2,0-4.1,0c-2.2,0-4.5,0.1-5.1,0.7c0,0-1.2-0.3-2.5-0.6c-1.2-0.3-2.5-0.5-2.5-0.5c-2.2-0.1-4-0.1-5.5,0
					c-1.5,0.2-2.8,0.4-4,0.7c-1.3,0.3-2.5,0.6-3.9,0.8c-1.5,0.2-3.1,0.4-5.3,0.4c2.6-0.9-1.4-1.2,4.4-2c-2.9,0.1-5.5,0.1-5.5,0.6
					c-1.7-0.4-7.9,1.5-10.6,1c-1.2,0.4-1.5,1.2-4.7,1.5c-0.4-0.1,0-0.3,0-0.3c0,0.3-4.9,1-2.1,1.5c-2.3-0.3-4.9-0.2-7.7,0.1
					c-2.8,0.3-5.8,0.8-8.8,1.4c-3,0.5-5.9,1.2-8.5,1.7c-2.7,0.4-5.1,0.8-7.1,0.8c-1.5,0.4-3.1,0.9-4.7,1.3c-1.6,0.5-3.2,1-4.9,1.5
					c-3.2,0.9-6.4,2-9.1,2.9c0.3-0.3-0.1-0.3,1-0.6c-3.9,0.8-4.8,1.7-5.9,2.7c-1.1,0.9-2.3,1.8-6.6,3c-2.3,0.3-1.3-0.3,0-0.9
					c1.3-0.6,2.8-1.1,1.4-0.8c-1-0.9-3.5,0.1-6.5,1.5c-0.8,0.3-1.5,0.7-2.3,1.1c-0.8,0.4-1.6,0.8-2.4,1.1c-1.6,0.7-3.2,1.3-4.8,1.5
					l1.3-0.7c-4.6,1-9.9,5.4-16.7,8.6c0,0,0.2-0.4-0.1-0.3c-2,1.7-5.1,3.8-8.4,6c-3.3,2.2-6.9,4.5-9.8,6.5c1.4-2,2.5-2.1,0.9-2.3
					c-2.7,1.8,1.6,0.8-3.7,4.4c-2.1,0.7-6.2,2.9-7.3,2.4l5.1-3.4c-1.7,0.3-3.3,1.4-4.9,2.6c-0.8,0.6-1.6,1.2-2.4,1.8
					c-0.7,0.6-1.2,1.2-2.2,1.6v-0.7c-2,1.4-3.2,2.5-4.3,3.5c-1.1,1-1.9,1.9-2.8,2.8c-1.7,1.8-3.6,3.6-7.5,6.7l1.1-0.3
					c-1.7,2.3-2.7,2.9-3.7,3.4c-1,0.6-2.1,1.1-3.8,3.3l-2.2,0c-1.3,1.3-3.3,3.8-5.7,6.4c-1.2,1.3-2.4,2.8-3.5,4.1
					c-1.2,1.4-2.3,2.7-3.4,3.9c0.9-1.7,2.6-4,4.4-6.3c1.9-2.3,3.9-4.6,5.4-6.5c-1.3,1.2-3.5,3.3-5.5,5.4c-1.9,2.1-3.6,4.1-4,5
					c0.9-1.1,2-2.7,3.1-3.5c-1.1,2-2.7,4.1-4.4,6.3c-0.9,1.2-1.8,2.3-2.9,3.6c-1.1,1.2-2.2,2.5-3.4,3.8c-0.7-1.4-3.9,1.9-7.4,6.2
					c-3.5,4.2-7.2,9.4-9.6,11c-3.1,5.7-6.4,11.1-9.5,17.1c-3.1,6-5.9,12.5-7.5,20c1.8-2.4,1.5-1.3,1.1,0.3c-0.3,1.6-0.7,3.8,0.5,3.6
					c-0.2,1.7-0.4,2.9-0.5,3.7c-0.1,0.8-0.2,1.2-0.3,1.4c0,0-0.2,0.7-0.4,1.6c-0.1,0.5-0.3,1.1-0.4,1.7c-0.1,0.6-0.2,1.3-0.3,1.9
					c-0.2,1.3-0.5,2.7-0.6,3.7c-0.1,1-0.1,1.7-0.1,1.7c-0.6,2.6-0.7-3.4-1.1-3.1c-0.1,1-0.1,1.8-0.1,2.4c0,0.6,0,1.1-0.1,1.5
					c-0.1,0.8-0.2,1.1-0.3,1.4c-0.2,0.5-0.7,0.7-0.7,3.4c0.3-0.6,0.7,0.1,1,1.5c0.1,0.7,0.4,1.6,0.5,2.5c0.1,0.5,0.2,1,0.2,1.5
					c0.1,0.5,0.2,1.1,0.3,1.7c0,0-0.1-1.6-0.1-3.3c0-0.8,0-1.6,0-2.2c0-0.6,0.1-1,0.1-1c0.3,1.4,0.6,2.5,0.8,3.5
					c0.2,1,0.4,1.9,0.5,2.7c0.1,0.8,0.2,1.5,0.2,2.1c0.1,0.7,0.1,1.3,0.2,1.9c0,0.6,0.1,1.2,0.2,1.9c0.1,0.7,0.3,1.4,0.5,2.1
					c0.4,1.6,1.2,3.5,2.6,5.9c0,0-0.6-0.7-1-1.5c-0.5-0.8-1-1.5-1-1.5c1.2,2.7,3.4,7.5,6.4,12c2.9,4.5,6.5,8.4,9,9.8
					c0.5,0.9,0.9,2.3-0.9,0.6c4.3,5.3,10.3,10.1,16.3,13.9c6,3.8,12,6.8,16.5,9.4c0,0-0.3,0-0.6,0c-0.3,0-0.6,0-0.6,0
					c2.4,0.9,4.4,0.8,7.1,2.4c-0.2,0.2-1.1,0.1-0.1,0.6c0.7,0.2,2.3,0.4,4.2,0.9c1.9,0.4,4,0.9,5.6,1.4c0,0-0.7,0-1.5,0
					c-0.7,0-1.5-0.1-1.5-0.1c6.3,2.1,11.4,2.5,16.2,2.5c1.2,0,2.4-0.1,3.6-0.2c1.2-0.1,2.3-0.2,3.5-0.3c1.2-0.1,2.4-0.2,3.6-0.3
					c1.2-0.2,2.5-0.3,3.9-0.4c0,0.4,0.7,0.7,1.7,0.9c0.5,0.1,1.2,0.2,1.9,0.3c0.7,0,1.5,0,2.3,0c1.6,0,3.4-0.1,5.1-0.3
					c1.7-0.2,3.3-0.5,4.5-0.7l-0.1,0.3c0.9-0.2,1.9-0.4,2.8-0.5c0.9-0.2,1.8-0.5,2.6-0.7c1.7-0.5,3.4-1,5-1.5
					c1.6-0.6,3.1-1.2,4.6-1.8c0.7-0.3,1.5-0.6,2.2-0.9c0.7-0.3,1.4-0.7,2.1-1c1.4-0.7,2.8-1.4,4.2-2.1c1.4-0.8,2.7-1.5,4.1-2.3
					c2.8-1.5,5.5-3.4,8.5-5.1c2-0.8,4.7-2.1,7.6-3.7c1.4-0.9,2.9-1.9,4.5-2.9c0.4-0.3,0.8-0.5,1.2-0.8c0.4-0.3,0.8-0.6,1.2-0.9
					c0.8-0.6,1.6-1.2,2.4-1.8c6.3-4.8,12.7-10.6,17.8-15.4c-1.7,1.3-0.6-1,1-2.9c1.2-1.1,2.5-3,3.5-4.4c1.1-1.4,1.8-2.4,2.2-1.8
					l-0.7,0.9c1.3-0.5,2.9-2.1,4.6-4.1c1.7-2,3.4-4.5,4.9-6.6L289,460c5-4.8,9.5-12.5,13.2-19.6c1.9-3.6,3.5-7.1,5-10
					c1.5-2.9,2.8-5.3,4.1-6.8c0.9-3.1,2.6-6.8,3.5-9.9l0.7,0.5c3.7-8.2,5.4-12.4,9-22.9l-0.2,2.3c1.1-2.9,1.1-5,1.2-7
					c0-2,0-4,0.9-6.7l1.7-1.2c1.7-5.2,3.6-10.3,5.2-15.5c1.6-5.2,3.3-10.4,4.1-15.7c0.1,0.2,0.4,0.6,0,2.3
					c1.4-4.9,5.9-18.9,3.9-17.5c1.1,0.2,2.8-10.8,3.8-16.6l0.5,1.1c0.2-5,0.1-5.2,1.3-12c0.4-1.6,0.9-1.3,0.2,0.8
					c1.5-5.2,0.2-4.3,2-10.7l-0.1,2.5c1.3-5.5,0.9-5.1,1-8.2c0.4-3.5,2.2-10.4,3-11.1c-0.2-0.8-0.2-3.9,0.7-7.1
					c0.3-0.4,0.2,0.8,0.2,1.4c0.6-2.3,0.9-4.3,1.2-6.1c0.3-1.8,0.4-3.5,0.6-5c0.3-3.1,0.7-5.8,1.5-9c0.2-0.1,0.4-0.5,0.6-1
					c-1.2,7.3-2.3,13.2-2.2,12.7c0.6,0.1,1.7-5.8,1.8-0.9c0.2-2.4,0.3-5.7,0.6-9.1c0.1-1.7,0.3-3.4,0.5-5.1c0.2-1.7,0.4-3.3,0.7-4.7
					c0.1-0.3,0.2-0.5,0.3-0.7l0,0.6c0.2-1.3,0.4-2.5,0.4-3.7c0.4-1.8,0.6-3,0.9-4.8c0.6-0.6,1.3-6.8,1.6-9.8c-0.7,0.2-0.1-3.7-1-0.1
					c0.1-0.5,0,0.6-0.2,2.6c0,0.5-0.1,1-0.1,1.3c0-0.1,0-0.1,0-0.2c-0.3,2-0.6,4.5-1,7.4c0-2.4,0.1-4.9,0.9-8.1
					c-0.2-1.6-0.4-3.3-0.5-4.3c1.4-4,2.7-11.8,3.4-12.8c0.2-2.3,0.4-4.8,0.5-7.3c0.2-2.5,0.4-5.1,0.5-7.6c0.2-2.5,0.3-4.9,0.3-7
					c0.1-2.1,0-4-0.2-5.4c0.1-2.6,0.5-3,0.7-3.9c0,1.5-0.1,3.3,0,4.1c0.1-5.2,1-15.4,0.4-16.7c0.6-6.5,0.5,3.7,0.8-5.3l0.2,1.2
					c0.9-8.8,0.9-16.1,0.6-23.5c-0.1-3.7-0.2-7.5-0.1-11.6c0-4.1,0-8.4,0.3-13.4c-0.1,1.4-0.1,2-0.2,2.3c0.1-5.6,0.2-11.3,0-17
					c-0.1-2.9-0.2-5.7-0.3-8.6c-0.1-2.9-0.2-5.7-0.4-8.6c-0.3-5.7-0.6-11.5-0.9-17.1c-0.4-5.7-0.8-11.3-1.1-16.8
					c-0.1-0.9-0.1-1.1-0.1-1.4c0-0.3,0-0.6-0.1-0.9c0-0.1,0-0.2,0-0.2l0.1,0.1c0.1,0.1,0.2,0.1,0.3,0.2c0.2,0.1,0.3,0.2,0.5,0.3
					c0.4,0.3,0.8,0.6,1.2,0.9c0.6,0.4,1.2,0.8,1.9,1.5l0.8,1.1c0,0,0.3,0.3,0.8,0.7c0.4,0.4,1.1,0.9,1.7,1.5
					c1.1,1.2,2.2,2.4,2.2,2.4c0.4,0.4,0.8,0.9,1.1,1.3c0.4,0.4,0.7,0.9,1,1.3c0.6,0.9,1.2,1.8,1.9,2.6c0.6,0.8,1.1,1.8,1.6,2.7
					c0.5,0.9,1,1.8,1.6,2.8c1.8,3.9,3.9,8,5.6,13.6l-0.3-1.5c0.3,1,0.7,2.3,1.1,3.7c0.3,1.4,0.7,2.9,1,4.2c0.5,2.7,0.7,4.8,0.6,4.4
					c0,0.4,0.4,1.3,0.4,3l0,0.1c0,0,0,0.6,0.1,1.6c0,0.5,0.1,1,0.1,1.7c0,0.3,0,0.6,0.1,0.9c0,0.3,0,0.6,0,1c0,1.3,0,2.6,0,3.6
					c0,1-0.1,1.6-0.1,1.6c-0.4,4-0.4,3.7-0.5,3.8c0,0.1,0,0.3-0.2,1.2c-0.2,0.9-0.5,2.5-1,5.3c-0.3,1-0.6,2.3-1,3.6
					c-0.2,0.6-0.3,1.3-0.6,1.9c-0.2,0.6-0.5,1.2-0.7,1.8c-0.8,2.2-1.4,3.7-1.1,2.9c0.6-1.6,1.6-4.1,1.7-4.3l-1.4,3.7
					c-0.1,0.3-0.5,1.2-0.3,0.9c0.1-0.2,0.3-0.6,0.7-1.6c0.2-0.5,0.5-1.1,0.8-1.9c0.3-0.8,0.7-1.7,1.1-2.9c0,0,0.5-1.6,1-3.3
					c0.3-0.8,0.4-1.7,0.5-2.3c0.1-0.6,0.2-1,0.2-1l0.5-2.2c0,0-0.3,1.4-0.6,2.8c-0.1,0.7-0.3,1.4-0.4,1.9c-0.2,0.5-0.3,0.9-0.3,0.9
					c0.3-0.8,0.4-1.5,0.6-2.2c0.1-0.7,0.3-1.3,0.4-1.9c0.2-1.2,0.5-2.3,0.6-3.4c0.1-0.5,0.2-1.5,0.4-2.8c0,0,0.2-1.7,0.2-3.4
					c0-1.7,0-3.4,0-3.4c0-0.4,0,0.3,0.1,0.6c0,0.1,0,0.2,0-0.1c0-0.3,0.1-0.9,0-2c-0.2-3.1,0,3-0.3-2.2c-0.1-3.3,0-2.3-0.6-6.1
					c0-0.5,0.1,0.3,0.3,1.8c-0.1-0.9-0.3-1.8-0.4-2.9c-0.1-1-0.4-2.1-0.6-3.1c-0.2-1-0.4-2-0.6-2.8c-0.2-0.8-0.5-1.4-0.6-1.9
					c-0.6-3.4-4-10.9-3.7-10.6c-0.3-0.5-1-1.8-1.8-3.4c-0.9-1.5-2-3.2-2.8-4.6c0.8,1.2,0.8,1.2,0.4,0.4c-0.4-0.7-1.3-2-2.3-3.5
					c-0.5-0.7-1-1.5-1.5-2.1c-0.5-0.7-1.1-1.3-1.5-1.8c-0.8-1.1-1.3-1.7-1-1.5c-0.2-0.2-0.4-0.4-0.6-0.6c-0.2-0.2-0.5-0.5-0.8-0.7
					c-0.5-0.5-1.1-1.1-1.8-1.7c-0.7-0.6-1.3-1.3-2.1-1.9c-1.1-0.9-2.2-1.8-3.4-2.8c-0.7-0.5-1.4-1-2.1-1.6l-0.1-0.1c0,0,0,0.1,0,0.2
					l0,0.3l0,0.7l0.1,1.3c0.1,1.5,0.2,3.1,0.3,4.6c0.2,2.1,0.3,4.2,0.5,6.1c-0.1-0.4-0.2-1.2-0.2-1.9c0.2,4.2,0.1,5.4,0.2,8.2
					c0.2,0.3,0.5,2,0.7,4.2c0.2,2.1,0.4,4.7,0.6,6.4c-0.2,5.2-0.7-3.1-1-1.5c0.3-0.3,0.7,8.9,0.9,7.2c-0.1,4,0,3.4-0.3,5.5
					c0.7,0.7,0.2,3.7,0.6,6.9c-0.2,5.7-0.6,1.5-0.3,7.8C364.6,101.9,364.3,96.3,364.3,96.3z M354.9,245.1
					C354.9,245.1,354.9,245.1,354.9,245.1c0.2-1.3,0.3-2.4,0.4-3.1C355.2,242.6,355.1,243.5,354.9,245.1z M352.8,257.4
					c0.3-1.5,0.6-3.4,1-5.4c0.3-0.4,0.5,0.1,0.2,1.4C354,252.7,353.3,255.6,352.8,257.4z M361.4,231.8c-0.2,2-0.4,2.6-0.6,2.9
					c0.1-0.9,0.2-2,0.4-3.5c0-0.1,0-0.2,0-0.2C361.3,231.2,361.3,231.5,361.4,231.8z"/>
				<path class="st0" d="M361,228.2c0-0.3,0-0.4,0.1-0.8c-0.1,0.4-0.2,0.8-0.3,1.2c0,0.2,0.1,0.5,0.1,0.7
					C360.9,228.9,361,228.5,361,228.2z"/>
				<path class="st0" d="M659.4,361.4l-0.3,0c0.2,0,0.4,0,0.6,0C659.5,361.4,659.5,361.4,659.4,361.4z"/>
				<polygon class="st0" points="302.9,422.3 303.1,422.4 303.4,421.4 				"/>
				<path class="st0" d="M727.9,352.1c0.1,0,0.4,0,0.9-0.1C728.8,351.9,728.4,352,727.9,352.1z"/>
				<path class="st0" d="M756.5,343.1c0,0,1-0.3,2-0.7c1-0.4,2-0.7,2-0.7C758.8,342.3,757.5,342.8,756.5,343.1z"/>
				<path class="st0" d="M777.9,334.5c0.2-0.2,0.3-0.3,0.3-0.3c0,0,0,0,0,0L777.9,334.5z"/>
				<path class="st0" d="M424.8,306.5c-0.3-0.1-0.6-0.2-0.8-0.3C421.9,305.7,423.3,306.1,424.8,306.5z"/>
				<path class="st0" d="M526.7,344.5c-1.1-0.3-2.3-0.5-3.4-0.8C525,344.3,526.5,344.9,526.7,344.5z"/>
				<path class="st0" d="M307.2,290.9C307.2,290.9,307.2,290.9,307.2,290.9c-0.2,0-0.5,0-0.7,0L307.2,290.9z"/>
				<path class="st0" d="M518.5,341.9c1.8,0.8,3.3,1.3,4.8,1.7C521.8,343,520,342.3,518.5,341.9z"/>
				<path class="st0" d="M857.2,276.1c0,0,0.1-0.2,0.3-0.5c0.1-0.3,0.2-0.5,0.2-0.5c0,0,0,0,0-0.1c0,0-0.1,0.3-0.3,0.6
					C857.3,275.9,857.2,276.1,857.2,276.1z"/>
				<path class="st0" d="M857.7,275l0.5-1.1C858,274.4,857.8,274.9,857.7,275z"/>
				<path class="st0" d="M859.2,271.5c0,0-0.1,0.2-0.1,0.4c-0.1,0.2-0.2,0.5-0.3,0.8c-0.2,0.6-0.5,1.2-0.5,1.2
					C858.6,273.1,859,272,859.2,271.5z"/>
				<path class="st0" d="M837.6,299.3l-0.2,0.3C837.5,299.5,837.6,299.4,837.6,299.3z"/>
				<path class="st0" d="M830.2,304.9c1.8-1.2,4.6-3.1,7-5.1l0.2-0.2C836.3,300.7,831.9,303.7,830.2,304.9z"/>
				<path class="st0" d="M796.5,323.9c0,0,0.4-0.2,1.1-0.5c0.6-0.3,1.5-0.7,2.4-1.2c1.7-0.9,3.4-1.8,3.4-1.8
					c-1.2,0.6-2.9,1.3,0.2-0.4c-4.4,2.2-3.9,2-3.4,1.9c0.2-0.1,0.4-0.1,0,0.1C799.8,322.2,798.8,322.8,796.5,323.9z"/>
				<path class="st0" d="M774.8,334c3.8-1.7-0.1-0.2,0-0.3C772.4,334.8,771.9,335.1,774.8,334z"/>
				<path class="st0" d="M605.5,359.6l0.5-0.6C602.8,358.8,605.9,359.2,605.5,359.6z"/>
				<path class="st0" d="M572.1,357.8l3,1c0,0,0.4-0.1,0.8-0.2c0.4-0.1,0.8-0.2,0.8-0.2s-1.2-0.1-2.3-0.3
					C573.3,358,572.1,357.8,572.1,357.8z"/>
				<polygon class="st0" points="554.2,348.6 555.6,348.8 550.4,347.7 				"/>
				<path class="st0" d="M272.5,287.2l1.2,0.9C275.8,287.4,276,286.1,272.5,287.2z"/>
				<path class="st0" d="M158.9,342.3c-1.4,0.4-4.5,2.4-5.8,4.3c1.1-0.9,2.3-1.7,3.3-2.4C157.5,343.5,158.4,342.9,158.9,342.3z"/>
				<path class="st0" d="M293.7,455.5c0,0-0.3,0.6-0.6,1.2c-0.3,0.6-0.6,1.2-0.6,1.2s0.6-1,1.3-2.1c0.6-1.1,1.2-2.1,1.2-2.1
					L293.7,455.5z"/>
			</g>
		</g>
	</g>
</g>
<g>
	<g>
		<g>
			<g>
				<path class="st0" d="M811.1,170.2c0.5,0,0.2,0-1.1-0.1l-1,0L811.1,170.2z"/>
				<path class="st0" d="M802.1,169.6c-1.6-0.1-3.4-0.1-2.4,0c1.6,0,1.9,0,3.6,0.1c1.3,0.1,2.3,0.1,2.1,0.1c0.5,0,2.1,0.1,2.8,0.1
					c-1.7-0.1-3.9-0.3-6.3-0.3C801.5,169.6,802,169.6,802.1,169.6z"/>
				<path class="st0" d="M672.5,184.8l0.8-0.2C673.1,184.7,672.8,184.7,672.5,184.8z"/>
				<path class="st0" d="M597.2,215.4c0.5-0.3,0.7-0.5,0.7-0.6C597.4,215.1,597,215.4,597.2,215.4z"/>
				<path class="st0" d="M584.5,221.3c0.3-0.1,0.5-0.2,0.7-0.4C584.9,221,584.6,221.1,584.5,221.3z"/>
				<path class="st0" d="M672.5,184.8l-2.1,0.4C670.3,185.5,671.5,185.1,672.5,184.8z"/>
				<path class="st0" d="M784.1,169.6c0.5,0,0.8,0,1.2-0.1C784.9,169.5,784.5,169.5,784.1,169.6
					C784.1,169.5,784.1,169.6,784.1,169.6z"/>
				<path class="st0" d="M707.2,175.7l0.6-0.1c0.2-0.1,0.3-0.2,0.5-0.3L707.2,175.7z"/>
				<path class="st0" d="M734.4,171.3c-0.6,0.1-0.8,0.5-1,0.7c0.3-0.2,0.8-0.3,1.3-0.4C734.7,171.5,734.6,171.4,734.4,171.3z"/>
				<path class="st0" d="M777.9,169l0.8,0C778.5,169,778.1,169,777.9,169z"/>
				<path class="st0" d="M687.9,179.9c-0.1-0.1-0.2-0.1-0.3-0.1C687.7,179.8,687.8,179.8,687.9,179.9z"/>
				<path class="st0" d="M385.4,184.3C385.4,184.4,385.4,184.3,385.4,184.3C385.4,184.2,385.4,184.1,385.4,184.3z"/>
				<path class="st0" d="M392.4,153.3l-0.1,0.4c0,0,0,0.1,0,0.1L392.4,153.3z"/>
				<path class="st0" d="M562.2,233.9c0,0,0.1,0,0.1,0C562.8,233.4,562.5,233.6,562.2,233.9z"/>
				<path class="st0" d="M413.1,349.3c0.8-0.4,0.7-0.1,0.4,0.5c-0.2,0.3-0.4,0.6-0.7,1c-0.4,0.4-0.8,0.9-1.1,1.4
					c-0.8,0.9-1.4,1.7-1.4,2c-0.1,0.3,0.4,0.1,1.7-0.6c-0.1-0.1,0.2-0.5,0.6-1.1c0.4-0.6,0.9-1.4,1.2-1.9
					C414.5,349,415.1,347.9,413.1,349.3z"/>
				<path class="st0" d="M783.3,169.6c-0.4,0-0.7,0-1.1,0C782.7,169.6,783.1,169.6,783.3,169.6z"/>
				<path class="st0" d="M411.9,353.4L411.9,353.4c0,0,0.5-0.3,0.5-0.3C412.2,353.2,412.1,353.3,411.9,353.4z"/>
				<path class="st0" d="M516.2,270.8c0.2,0,0.5,0,0.7-0.1C516.8,270.7,516.6,270.7,516.2,270.8z"/>
				<path class="st0" d="M551,244l-0.9,0.5C550.4,244.4,550.7,244.2,551,244z"/>
				<path class="st0" d="M500.9,287.8c-0.5,0.4-0.7,0.4-1.2,1.1c0.1,0,0.2-0.1,0.3-0.1C500.1,288.5,500.3,288.2,500.9,287.8z"/>
				<path class="st0" d="M485.1,305.5c0.1,0,0.3-0.1,0.4-0.2c0.1-0.2,0.3-0.4,0.4-0.6L485.1,305.5z"/>
				<path class="st0" d="M370.1,254.2c0.2-0.5,0.5-0.8,0.6-1C370.3,253.5,370.9,250.1,370.1,254.2z"/>
				<path class="st0" d="M784,169.5c-0.1,0-0.3,0.1-0.7,0.1C783.6,169.6,783.9,169.5,784,169.5C784.2,169.5,784.2,169.5,784,169.5z"
					/>
				<path class="st0" d="M505.9,293.9l-2.6,2.6C504.1,295.9,505.1,294.9,505.9,293.9z"/>
				<path class="st0" d="M347,404.6l-0.2,0.8C346.9,405.1,347,404.8,347,404.6z"/>
				<path class="st0" d="M496.2,304.8c-0.7,0.3-1.3,0.7-1.9,1.1c0,0.2-0.1,0.3-0.1,0.5L496.2,304.8z"/>
				<path class="st0" d="M370.7,253.2C370.7,253.2,370.7,253.2,370.7,253.2C370.7,253.2,370.7,253.2,370.7,253.2z"/>
				<path class="st0" d="M375,228.9c-0.8,3.5,0.1,1.7,0.2,2.5c-0.8,4.2-0.8,1.8-1.4,3.2c-0.4,2.6-0.4,4.7-0.8,6.6
					c-0.1,0.1-0.2,0.5-0.3,0c-0.1,2.8-1.8,8.1-1.8,11.5c-0.1,0.2-0.2,0.3-0.2,0.4c0.4-0.5,0.7-0.5,0.9-0.3c-0.3,1.6-0.2,3-0.7,3.5
					c0.2-1,0.1-1.1,0-1.5l-0.2,1.7c-0.9,1.4,0.3-2.3-0.2-2.4c-0.5,3.2-0.8,7-1.5,9.5c-0.7,0.4,1-5.8-0.2-2.6l1-3.7
					c-1.5,2.7,0.6-2.3-1,0.2c-1.3,4.9-0.9,5.6-2.2,10.5c0.1,1.2,0.6-0.3,0.7,0.9c-0.8,7.2-2.8,5.2-3.1,10.6c0.2,1.4,0.9,2.1-0.3,5.7
					l-0.5-1.4c-1.1,4.8,0.5,3-1.1,7.9c-0.1-1,0.5-3.8,0.3-3.1c-1.3,3.1,0,2.4-0.6,4.9l-0.8,0.4c-1,5.2-1.6,10.9-2.7,16.6
					c-0.2-0.4-0.2-1.4-0.7-0.1c-1.1,7.2-3.3,15.3-5.3,22.1l0.2,2.8c-0.1,0.6-0.6,1.1-0.6,0.4c-0.9,2.6,0.4,0.2,0.5,1.6
					c-0.3,1.5-0.9,1.9-0.9,0.9c-0.4,4.9-1.4,13.8-3.3,18.7l0.1-1c-1.2,3.8,0.4,4.7-0.6,8.2v-0.7c-2,8.4-3.4,17.9-6.1,24.1
					c1,1.5-2.4,8.3-0.7,9.2c-1.9,4.7-2,3.2-4,9.9c-0.4,1.5,0.3,2.6,0.3,4.3l5.8,1.5c0-0.3,0.1-0.6,0.2-0.9l0.9,0.3l0.1-3.2l1.7-1.1
					c0,0,0.1-0.5,0.3-1c0.2-0.5,0.3-1,0.3-1c-0.4,0.7-1.1,1.4-1.3,1.2c0.4-1.6,1.4-3.3,2.3-4.7c0.4-0.7,0.9-1.2,1.3-1.6
					c0.4-0.4,0.7-0.6,0.8-0.5c0,0,0.7-1.8,1.4-3.6c0.4-0.9,0.8-1.8,1.1-2.4c0.3-0.7,0.5-1.1,0.5-1.1c0.3,0.4-0.3,1.5-0.6,2.5
					c1.2-4,1.3-0.1,2.4-3.8c-0.5,0.3-0.4-0.6-0.5-0.7c0.8-0.6,1.8-1.8,2.8-3.1c0.5-0.7,1-1.4,1.5-2.1c0.5-0.7,1-1.4,1.4-2.1l0.2,0.9
					c3.5-4.4,7.4-9.3,12.2-13.6c-1.9,1.3-2.4,0-1.1-1.4l1.3,0.3c0.4-1.3-1.8,1-0.5-1.3c1.9-1.5,2-0.1,1.3,1.1c0,0,0.5-0.6,1-1.1
					c0.5-0.6,1-1.1,1-1.1c0.3,0.2-0.1,0.7,0.1,1.1c0.5-1.3,4.6-2.2,5.2-4.1l0.3,0.2c2.6-1.8,4.4-3.2,6.2-4.4
					c0.9-0.6,1.8-1.2,2.7-1.8c0.9-0.6,1.9-1.1,3.1-1.7c-0.4-0.9,1.5-1.7,2.6-3.1c1.8-0.6,3.8-1.3,5.8-1.8c1-0.3,2.1-0.5,3.1-0.9
					c1.1-0.3,2.1-0.7,3.2-1c2.9-1.4,0.6-1.1,1.9-2.1c0.3,0.5,1.8,0.2,2.6,0.2l-2.1-7.3c-0.8,0.1-1.3,0.1-0.2-0.6l2.5,8.4
					c0,0,0,0,0,0c0,0,0,0,0,0l-2.5-8.4c-1.6,0.6-2.9,1.1-4,1.7c-1.1,0.5-2.1,1.2-3,1.8c-0.5,0.3-1,0.7-1.4,1.1
					c-0.5,0.4-1,0.8-1.5,1.3c-0.5,0.5-1,1.1-1.6,1.7c-0.7,0.9-1.6,1.9-2.4,3c1.2-0.8,2.2-1.6,2-0.9c-0.6,0.7-1.4,1.4-2,2
					c-0.6,0.6-1.2,1-1.4,0.8l0.2-0.5c-1.6,2.6-2.8,5.2-4.1,8c-0.3,0.7-0.6,1.4-0.9,2.1c-0.3,0.7-0.5,1.4-0.7,2.1
					c-0.5,1.5-0.8,2.9-1.2,4.4c-0.1,0.7-0.2,1.4-0.3,2.1c-0.1,0.7-0.2,1.4-0.2,2.1c0,0.7,0,1.4,0,2c0,0.7,0,1.4,0,2
					c0,1.2,0.2,2.6,0.4,3.7l0.1,0.4c0,0.1,0,0.2,0,0.2l0.2-0.1c0.2-0.1,0.4-0.3,0.6-0.4c0.4-0.3,0.8-0.6,1.3-1l-0.4,0.3
					c0,0,1.6-1.1,3.1-2.2c1.5-1.2,3-2.4,3-2.4c1.1-0.6,0.6,0,0,0.7c-0.6,0.7-1.4,1.5-0.7,1.6c0.9-0.7,1.6-1.3,2.4-2
					c1.4-1.4,2.6-2.6,3.8-3.8c2.4-2.2,4.5-4.1,6.6-6l0.8-0.7l0.4-0.3l0.8-0.6c0.5-0.4,1-0.9,1.5-1.3l0.4-0.3l0.2-0.2l0.1-0.1
					c0,0,0,0,0,0c-0.1,0.1-0.3,0.2-0.4,0.3c-0.3,0.2-0.6,0.3-0.7,0.3c-0.1,0.2-0.1,0.3-0.2,0.5c0,0,0,0.1-0.1,0.1l0,0.1l0,0.1
					c0,0.1,0,0.3,0,0.4c0,0.2,0,0.4,0.1,0.4c0,0.1,0.1,0,0.2-0.1c0-0.1,0.1-0.1,0.2-0.2l0.1-0.3c0.2-0.5,0.3-0.8,0.3-0.9
					c0-0.1,0-0.1-0.1-0.2c-0.1-0.1-0.1-0.1-0.2-0.2l0,0l0,0l0,0.1l-0.1,0.3c0,0.2-0.1,0.4-0.1,0.6c-0.1,0.4-0.2,0.8-0.3,1.1
					c0,0,0.2-0.2,0.4-0.4c0.2-0.2,0.4-0.3,0.4-0.3c0.1,1.4-0.1,2.3-0.4,3.1c-0.3,0.8-0.7,1.7-0.9,2.8c0.3-0.3,0.5-1.1,0.8-1.7
					c0.2-0.6,0.4-0.8,0.4,0c0,0.4-0.1,0.7-0.1,1.1l0,1l-0.1,2l-0.1,2l0,0.5l0,0.1c0,0,0.1,0,0.1,0h0.3l1.1,0c1.4,0,2.8,0,4.3,0
					c0.7,0,1.4,0.1,2.1,0l2.2-0.1c0.7,0,1.5-0.1,2.2-0.2l1.9-0.3c1-0.2,1.9-0.4,2.9-0.6c1.9-0.5,3.8-1,5.7-1.7
					c7.5-2.7,14.1-7.1,19.7-12.1c2-1.9,1.9-3,2.1-4.2c0.1-1.2,0.5-2.3,3.3-4.2l-0.3,2.2c3-4.5,6.4-8.7,9.6-13
					c1.6-2.1,3.2-4.3,4.7-6.4c1.5-2.2,2.9-4.3,4.1-6.5c-0.1,0.6,0.2,0.9-0.4,1.7c2-1.2,4.7-6.2,4.1-6.7c1-1.2,0.7,0.1,1.6-0.4
					c1.6-1.4,2.4-4.9,3.8-5.2c0.2-0.1-0.1,0.6-0.3,1c0.5-1.3,4.1-5,2.5-4.6c0.7-0.7,1.3-1.4,1.8-2.1c0.6-0.7,1.1-1.4,1.6-2.1
					c1-1.4,2-2.6,3.2-3.6c0.2-1.1,1.4-2.2,2.3-3.3c1-1,1.9-2,1.5-2.7c1,1.3,5.4-4,6.4-6.3c-0.2,0.9,1.8-1.2,1.6,0
					c1.9-2,3.4-3.9,2.5-4.2c2.4-1.1,3.9-3.2,5.2-5c1.4-1.8,2.6-3.3,4.5-3.4c1.3-1.5,2.6-3.1,3.9-4.6c1.3-1.5,2.6-2.8,3.9-4.2
					c1.3-1.4,2.6-2.7,3.9-4.1c1.3-1.3,2.7-2.6,4-3.8c0.4,0.7-1.1,2-2.6,3.3c-1.4,1.3-2.7,2.6-2.1,3.1c2.3-2.6,4.1-4.7,5.9-6.7
					c0.9-1,1.9-2,2.9-3c0.5-0.5,1.1-1,1.7-1.5c0.6-0.5,1.3-1,1.9-1.5c1.5-0.9-0.4,1.1-0.7,1.7c2.5-2.4,5.1-4.4,7.7-6.4
					c2.5-2,5.1-3.8,7.3-6c0.1,0.1-0.4,0.6-0.8,1.1c0.9-0.8,2.4-1.5,1.9-2l-0.8,0.9c-2.1,0.4,2.7-4.5,2.6-5c-0.6,2.7,5.3-3.1,3.9,0.7
					c0.6-0.6,1.2-1.4,0.8-1.6c1-0.6,1.5-0.6,0.8,0.5c3.3-2.8,1.7-2.5,4.9-4.7c0.2,0.3-0.4,0.8-0.6,1.3c1.3-1.6,2.7-3.2,5.6-4.8
					c-0.1,0.3,0.4,0.3-0.4,0.8c2.4-1.6,4.2-3.3,6.1-4.9c2-1.6,4.1-3.1,6.9-4.5c-0.9,2.1,2-0.7,2.9,0l2.8-2l-1.4,0.2
					c2.6-1.4,4.4-3.4,6.8-4.4l-1.7,1.5c0,0,1.2-0.7,2.4-1.5c1.2-0.7,2.4-1.4,2.4-1.4s-0.7,0.3-1.5,0.6c-0.7,0.3-1.5,0.6-1.5,0.6
					c2.3-1.9-1-1.1,2.7-2.7c-0.7,0.5,2.6-1.4,4.3-1.5l0,0c1.1-1,2.3-2,4.4-2.8c0.7,0,0.1,1.2,0.5,1.3c0.9-1.5,6.1-3.3,7.3-4.9
					c-0.5,0.5-0.3,1,0,1l0.8-1.2c1.3-0.4,1.5-0.4,1.5,0.1c3.8-1.7-1.7-0.6,2.9-2.2c-0.3,0.2-0.1,0.2-0.8,0.6
					c4.6-1.7,8.4-4.3,12.7-5.8c1.6,0.4-3.5,1.7-1.8,1.9c2.9-1.4,5.9-2.9,8.9-4.4c0.8-0.4,1.5-0.7,2.2-1.1c0.8-0.3,1.5-0.7,2.3-1
					c1.5-0.6,3-1.2,4.5-1.7l-1.1,0.3c0.2-0.8,1.3-1,2.8-1.3c1.5-0.3,3.2-0.6,4.6-1.4c-0.7,0.3-0.7,1-0.6,0.8
					c2.1-0.6,4.1-1.4,6.4-2.4c1.1-0.5,2.4-1,3.7-1.5c1.3-0.5,2.7-1.1,4.3-1.6l-0.7,0.5c2.5-0.5,6.4-1.9,9.1-2.5
					c0.7-0.5,2.2-0.9,1.2-1c4.3-0.3,8.1-1.7,11.8-2.9c3.7-1.1,7.4-2.3,11.2-2.6c-0.9,0.2-2,0.7-1.3,0.5l6.2-1.6
					c-0.6-0.3-0.9-0.1-2.2-0.1c0.7-0.4,2.5-0.9,4-1.3c-2.8,0.8,0.2,0.6,1.4,0.6c-0.2-0.1,0.2-0.3,0-0.4c3.4,0,0.4-0.9,5-1.3
					l-0.2,0.2c1.7-0.4,3.2-0.9,5-1.2c0.8,0.3-1.8,0.5-1.8,0.9c2.5-0.5,4.9-1.7,7.3-1.6c-1.1,0.3-2.6,0.6-3.7,0.9
					c2.6,0,2.9-0.2,4.7-0.4l-0.2,0l4.4-0.4l-1.1,0c1.5-0.7,3.2-1,4.9-1.2c1.8-0.3,3.7-0.5,5.8-1c-4.2,1-0.7,0.4-0.9,0.8
					c1.1,0,2.8-0.1,2.3,0.1c2-0.5,3.4-0.2,6.3-0.9c0.1,0.1,2.2-0.2,1.8,0.1c2.7-0.3-0.6-0.1-0.4-0.3c2-0.4,4.5-0.4,7.1-0.6
					c1.3-0.1,2.7-0.2,4.1-0.3c1.4-0.1,2.9-0.2,4.4-0.4c2.6-0.2,4.1-0.4,5.5-0.6c1.5-0.2,2.9-0.3,5.3-0.4c1.6,0.1-1.3,0.3-1.3,0.3
					c2.6,0.1,4.5,0,7-0.1c-0.5,0.1,0,0.1,0.8,0.1c2,0,1.3-0.2,3.9-0.2c-0.4,0-1,0.1-2,0.2c2.3-0.1,4.6-0.1,7-0.1
					c0.6,0.1-1.4,0.1-2.3,0.1c2.7,0,7,0,7.8,0l-1.7-0.1c1,0,0.5,0.1-0.2,0.1c-2.3,0-3.3-0.1-3.5-0.1l1.7,0
					c-1.7-0.2-6.8-0.2-10.3-0.1l1.4-0.2l-3.5,0.2c-0.7-0.1-1.3-0.2,0.4-0.2c-2.5-0.1-2.2,0.1-4.3,0c-0.2,0-0.1,0,0.1,0l-2.4,0.1
					c0.5-0.1-0.4-0.2,1.1-0.2c-4.3-0.2-7,0.4-8.6,0.2l0.4,0c-6,0.3-0.6,0.3-5,0.8l-3.1-0.5l-0.6,0.3c-0.6,0-1.8,0.1-1.6,0
					c-2.3,0.4,0.4,0.1-0.9,0.4c-3-0.1-8.2,0.7-8.9,0.3c-1,0.4,2.8-0.1-0.3,0.4c-1-0.5-3.6,0.5-6.4,0.5c0.8-0.4,3.4-0.5,0.6-0.5
					c-1.6,0.7-5.3,0.4-7.5,0.8c0,0.5-4.9,0.9-8.7,1.5c0.2-0.2-7.2,0.9-10.8,1.3l0.1-0.1c-0.6,0.7-4.2,1.3-6.8,1.9
					c0-0.4,0.5-0.6,1.9-1.1l-2.5,0.5c-0.5,0.3-1.3,0.6-2.9,1l0.5-0.6c-1.6,0.4-3.3,0.8-5,1.3c-1.7,0.5-3.6,1-5.8,1.3
					c-0.1,0.5,3.7,0.5-0.7,1.9c-0.2-0.2-0.5-0.6,0.6-1c-0.4,0.1-1.3,0.5-2.1,0.6l1.7-0.8c-2,0.3-0.9,0.6-2.5,0.9
					c-0.1-0.4-1.2,0-1.1-0.3c0.4-0.1,1.4-0.2,1.9-0.4c-1.8,0.3-3.9,0.6-4.7,0.5c0.2,0.2,0.1,0.5-1.1,0.9c-3.2,0.9-1.2-0.2-3.2,0.1
					c-0.7,0.5-2.9,0.7-2.8,1.3c-1,0.2-1.2,0-1.6,0c-1.6,0.7-7.8,2.4-5.7,2.4l0.4-0.1c-0.1,0-0.2,0.1-0.3,0.1c0,0,0,0,0,0l0,0
					c-2.6,1.1-5.5,1.9-8.4,2.6c-2.8,0.8-5.7,1.6-8.4,2.6l-0.1-0.2c-0.8,0.3-1.6,0.7-2.5,1c-0.8,0.3-1.7,0.7-2.5,1
					c-1.6,0.7-3.1,1.3-4.2,2c-0.9,0.3-2.4,0.4-2.1,0c-1.2,0.5-1.8,0.9-2.6,1.2c-0.8,0.4-1.7,0.7-3.5,1.2c2.3-1.4-1,0,2.4-1.3
					c-3.2,1.1-4.1,1-7.2,3c0.9-1-2.7,0.2-4.1,1c0,0,0.6-0.1,1.2-0.2c0.6-0.1,1.2-0.2,1.2-0.2c-1.6,0.7-3.1,1.3-4.6,1.9l0.4-1.1
					c-3.4,0.9-6.1,2.5-8.6,4c-2.5,1.6-4.8,3-7.6,3.3c-1.4,1.4,3.6-1.2,2.4,0.2c-2.9,1.3-6.5,1.5-7.4,1.9c-4.1,1.5-3,3.1-7.2,4.8
					c0.7,0,1.6,0.6-1.3,2.4c-2.8,1.4-4.1,0.6-2.5-0.6c0.7-0.4,1-0.5,1.1-0.4c0.8-0.6,2-1.3,0.7-1.1l-0.2,0.5
					c-1.6,0.4-5.4,2.6-4.7,1.6c-1.9,1.4-0.6,1,1,0.3c-3.8,1.6-5.6,3-9.4,4.9c0.7-0.2,1.4-0.1,0.8,0.2c-5.5,2.8-2,2-5.5,4.2
					c-2.3,0.7,0-1.6-3.3,1c-2.4,1-1-0.5-0.3-1.3c-2.9,2.6-6.3,3.4-8.3,4.5l1.5-1.3c-0.9,0.8-1.8,1.3-2.6,1.9l1.4,0
					c-1.1,0.5-1.9,1.1-2.1,0.8c-0.8,1.1,1.5,0.5-0.2,2.4c-1.5,0.5-3.7,3-4.8,2.5c4.3-2.5-1-0.5,2.4-3c-0.6,0.6-1.4,1.1-2.5,1.7
					c-0.2,0,0-0.3,0.3-0.5c-4.5,1.9-1.2,2.2-5.3,4.9c0.2-0.8-1.6-0.2-2.2,0.3c1.6-1.1,1.3,0.2,0.1,1.6c-2.8,1.5-2.6,2.3-3.9,3.2
					l1.6-0.9c-0.2,0.8-1.5,1.7-3.2,3.2c-0.4-0.3,1.4-1.4,0.7-1.1c-0.7,1.1-1.9,1.7-3.3,2.4c-1.4,0.7-2.9,1.4-4,2.7
					c-1.5,0.7-0.8-0.8-2.1-0.1c-2.5,3-3.8,1.9-6.5,4.9c1.4-0.1,1.4-0.4-0.2,2c0,0,1.2-1.2,2.4-2.3c1.2-1.1,2.4-2.3,2.4-2.3
					s-0.7,0.9-1.3,1.8c-0.7,0.9-1.3,1.8-1.3,1.8c1.5-1.3,3-3,4-3.6c-1.2,1.7-1.1,1.5,0,1.4c-1.4,0.4-2.4,1.3-3.3,2.4
					c-0.9,1.1-1.9,2.2-3.3,2.9l-1.2-1.6c-2.1,1.2-3.6,2.7-5.1,4.4c-1.5,1.7-3.1,3.6-5.6,5.5l1.7-1.1c-0.1,1.2-2.8,2.6-4,4.2
					c-0.3-0.6-1.4,0-2.3,0.3c0.4,0.3-3.3,3.1-2.8,4.5l-2.6,1.2c-3.9,3.1-2.7,5.4-6.2,8.6c0.5-1.6-1.4-0.4,0.4-3
					c-1.1,1.1-2.2,2.1-1.9,2.4c-1,0.4-2.4,3.8-3.9,4.4c-0.2,0.7,0.2,1.4-1.1,2.6c-0.2,0-0.3-0.2-0.3-0.2c0.2,0.2-1.5,2.4,0.1,1.8
					c-2.4,1.1-4.8,3.6-6.9,6.1c-2.1,2.6-4.2,5.1-6.3,6.1c-1.1,1.4-2.2,2.9-3.3,4.5c-1.1,1.5-2.2,3-3.2,4.2c0-0.3-0.3-0.2,0.2-0.7
					c-3.2,3-0.1,3.3-3.6,6.8c-2.4,1.3,1.1-2.5-0.2-1.5c-2.3-0.9-3.3,5-6.4,6.8l0.4-0.7c-2.2,1.6-2.9,5.5-5.5,8.7
					c0,0-0.1-0.3-0.3-0.2c-0.7,3-3.5,7.5-5.8,10.8c0-1.6,0.7-1.7-0.5-1.7c-1,1.5,1.6,0.6-0.5,3.5c-1.1,0.6-3.1,2.2-4.1,1.7
					c0,0,0.5-0.6,1.1-1.3c0.5-0.6,1-1.3,1-1.3c-2.1,0.4-2.7,3.3-4.1,4.4l-0.3-0.6c-1.6,1.9-2.2,3.1-2.9,4.3
					c-0.7,1.2-1.4,2.4-3.5,4.1l0.7,0c-1.3,3-2.4,1-4.1,3.6l-1.6-0.7c-1.3,1.4-4.8,5-7.9,6.5c0.3-0.4,0.8-0.9,1.3-1.4
					c0.5-0.5,1.1-1,1.7-1.5c1.2-1,2.4-2.2,3.2-3.1c-0.8,0.5-2.1,1.4-3.3,2.2c-1.2,0.8-2.3,1.6-2.6,2.1c0.6-0.5,1.3-1.2,2-1.3
					c-1.4,2.1-4.1,4-7.8,5c0-0.7-0.6-1-1.6-1c-0.2,0-0.5,0-0.8,0c-0.2,0-0.5,0-0.8,0c-0.3,0-0.7,0-1.1,0.1c-0.4,0-0.8,0-1.2,0
					c-0.4,0-0.7-0.1-1-0.2c-0.1,0-0.2-0.1-0.3-0.2c0,0-0.1,0,0-0.1l0.1-0.2c0.1-0.1,0.1-0.2,0.2-0.3c0.2-0.4,0.5-0.8,0.8-1.1
					c-0.2-0.4-0.2-1-0.2-1.7c0.1-0.8,0.2-1.5,0.3-2.3c0.1-0.8,0.2-1.6,0.4-2.4c0.3-1.6,0.5-3.3,0.8-5c0.6-3.6,1.2-7.2,1.8-10.9
					c0.1-1,0.3-1.9,0.5-2.9l0.1-0.7l0-0.1c0,0,0,0,0,0l-0.1,0.1l-0.2,0.2l-0.9,0.8c-1.2,1.1-2.5,2.2-3.8,3.4
					c0.4,0.4,0.4,0.8,0.1,1.2c-0.2,0.4-0.7,0.8-1.2,1.3c-1,1-2.4,2.3-2.8,4.2c-2,2-2.6,2.5-2.8,2.5c0,0-1.7,1.1-4,2.7
					c-1.4,1-1.7,1.1-2.3,1.4c-0.5,0.3-0.8,0.4-0.8,0.4c-1.5,0.4,1-1.6,0.5-1.9c-1.6,1.3-2.1,1.4-2.5,1.4c-0.2,0-0.4-0.1-0.6-0.1
					c-0.1,0-0.3,0.1-0.5,0.1c-0.3,0.2-0.2-0.1-0.1-0.3c0.1,0.5,0.5,0.5,0.7,0.5c0.3-0.1,0.5-0.3,0.9-0.8c0,0-0.3,0.6-0.4,1.1
					c-0.1,0.5-0.1,0.8-0.1,0.8c0.2,0.2,0.2,0.3,0.2,0.1c0-0.2,0.2-0.6,0.4-1.2c0.1-0.3,0.3-0.6,0.3-0.8c0-0.2,0.1-0.3,0.1-0.4
					c0-0.1-0.1,0-0.7,1c0,0,0.3-0.5,0.6-1c0.2-0.5,0.5-0.9,0.5-0.9c-0.3,0.6-0.6,0.8-1.2,1.6l-0.3,0.3l-0.2,0.2l-0.1,0.1
					c-0.2,0.2-0.4,0.3-0.6,0.5c-0.5,0.4-1.2,0.9-2.2,1.8c0.6-0.9,1.9-2.4,2.3-2.5c0.2-0.5,0-0.7-0.1-0.9c-0.2-0.2-0.4-0.5-0.5-0.9
					c0-0.2,0-0.5,0.1-0.7c0.1-0.3,0.2-0.6,0.4-0.8c0.4-0.5,0.9-1,1.4-1.2c0,0,0.3,0.5,0.3,0.5c0,0,0-0.1,0-0.2
					c0-0.1,0.1-0.2,0.2-0.3c0.1-0.2,0.3-0.5,0.4-0.7c0.3-0.5,0.7-0.9,1.4-1.1c0.1,0.2,0,0.7,0.4,0.4c0.2-0.2,0.6-0.9,1.3-1.5
					c0.3-0.3,0.7-0.6,1.1-0.9c0.4-0.2,0.8-0.4,1.2-0.5l-0.9,1.1c0.7-0.2,1.3-0.5,1.9-0.8c0.6-0.2,1.2-0.5,1.7-0.7l-2.5-8.7
					c-2.1,0.8-3.8,1.8-5.5,2.7c-1.7,1-3.4,2.1-5.4,3c-0.1-0.4-0.6-0.5-1.2-0.6c-0.6,0-1.4,0.1-2.3,0.3c-1.8,0.4-3.8,1.1-5.1,1.7
					l0-0.2c-1.9,1-3.6,1.9-5.2,3c-1.5,1.1-3,2.2-4.3,3.3c-1.4,1.1-2.6,2.4-4,3.5c-0.7,0.6-1.3,1.2-2,1.8c-0.7,0.7-1.3,1.3-2,2
					c-2.4,0.8-5.6,3.4-8.9,6.4c-0.8,0.8-1.6,1.6-2.4,2.4c-0.8,0.8-1.6,1.6-2.4,2.5c-0.8,0.8-1.5,1.6-2.3,2.4
					c-0.8,0.8-1.5,1.5-2.2,2.2c0.9-0.8,0.8,0.9,0.1,2.1c-0.7,0.6-1.2,1.8-1.7,2.6c-0.5,0.9-0.9,1.5-1.4,1l0.4-0.5
					c-0.9,0.2-1.8,1.1-2.7,2.3c-0.9,1.2-1.8,2.6-2.5,3.9l1.2,1.3c-1.5,1.3-2.9,3-3.9,5c-1.1,2-2.1,4.1-2.8,6.3
					c-1.6,4.2-2.5,8.2-4.2,10l7.4,1.9c0.1-0.1,0.1-0.2,0.2-0.3c-0.1-1.8,0.4-4,0.3-5.8l0.9,0.3c1.2-4.8,1.7-7.2,2.7-13.3l0.4,1.3
					c0.7-3.4-1.6-4.8-1-7.9l1.4-0.7c1.1-5.9,3.3-11.7,3.4-17.7c0.2,0.1,0.5,0.4,0.3,1.3c0.6-2.8,2.8-10.6,1.1-9.9
					c1,0.1,1.3-6.1,1.4-9.3l0.6,0.6c-0.4-2.9-0.7-3-0.2-6.8c0.3-0.9,0.7-0.7,0.3,0.5c1-2.9-0.2-2.4,0.9-6l0.2,1.4
					c0.6-3,0.4-2.8,0.2-4.6c0.1-2,1.3-5.8,2-6.1c-0.3-0.5-0.5-2.3,0-4c0.3-0.2,0.3,0.5,0.3,0.8c1.4-5,0.7-7.7,2-11.1
					c0.2,0,0.4-0.2,0.5-0.5c-0.8,4.1-1.5,7.3-1.5,7c0.6,0.1,1.3-3.1,1.7-0.4c0-2.7-0.1-7.4,0.8-10.6c0.1-0.1,0.2-0.3,0.3-0.4l0,0.3
					c0.2-0.7,0.3-1.4,0.3-2c0.3-1,0.5-1.6,0.7-2.6c0.5-0.3,1-3.7,1.3-5.3c-0.6,0-0.1-2.1-1-0.2c0.1-0.3,0,0.3-0.2,1.4
					c0,0.2-0.1,0.5-0.1,0.7c0,0,0-0.1,0-0.1c-0.2,1.1-0.4,2.5-0.7,4.1c-0.1-1.4-0.1-2.8,0.6-4.5c-0.2-0.9-0.5-1.9-0.6-2.5
					c1.3-2.1,2.6-6.3,3.2-6.8c0.6-5.1,2-11.8,1.6-15.1c0.1-1.4,0.6-1.6,0.9-2.1c-0.1,0.8-0.3,1.8-0.2,2.3c0.3-2.9,1.5-8.4,1-9.2
					c1-3.5,0.2,2.1,1.1-2.8l0.1,0.7c1.4-4.7,1.8-8.7,2.2-12.9c0.4-4.1,1-8.4,2.6-13.6c-0.2,0.7-0.3,1.1-0.4,1.2
					c1.4-6.1,2.5-12.4,3.7-18.7c1.1-6.3,2.3-12.5,3.7-18.5c0.7-3.4,0.6-3.8,0.9-5.9l0.4-0.7l0.4-3.6c0.8-5.1,2.2-8.7,3.1-15.2
					l-0.3,0.8c0.5-2.3,1.4-7.3,1.4-6.9c0-0.2,0.1-0.8,0.3-1.7l0.1-0.1l1-5.7c0.9-4.4,0,0.7,1.2-5.7c0.4-2.3,0.9-5,1.1-5.9
					c-0.2,1-0.5,2.5-0.5,2.5l0.4-2.2c0.1-0.4,0.5-2.1-0.8,3.3l-0.8,3.7l-0.3,1.2l0.7-3.1c-0.4,1.8-0.7,2.9-0.9,4.1
					c-0.1,0.3-0.2,0.8-0.4,1.5l-0.7,3.7c-0.2,0.4,0.3-1.7-0.3,0.8c-0.3,1.7,0.5-1.6-0.1,1.2c-0.5,1.8-0.4,1.2-0.8,3.3
					c-0.1,0.3,0-0.2,0.1-1c-0.4,1.9-1.1,4.9-1.2,5.9c-0.5,1.8-1.3,6.3-1.6,6c-0.1,0.6-0.5,3.3-0.9,5c0.3-3.2-1.4,6.4-1.7,5.5
					c-0.1,2.4-1.7,8.3-2.3,12.5c0-0.2,0-0.7,0.1-1.1c-0.5,2.3-0.8,2.9-1.3,4.4c0.3,0.4-0.3,4-0.5,5.9c-1,2.7-0.2-1.8-0.7-1
					c0.4-0.1-0.7,5-0.2,4.1c-0.7,2.1-0.5,1.8-1.2,2.9c0.5,0.5-0.3,2-0.3,3.9c-1,3-0.8,0.7-1.3,4.1C374.6,232,375,228.9,375,228.9z
					 M359,310.6C359,310.6,359,310.5,359,310.6c0.1-0.7,0.2-1.3,0.3-1.7C359.2,309.2,359.1,309.7,359,310.6z M357.6,317.4
					c0.2-0.8,0.4-1.9,0.6-3c0.3-0.2,0.5,0.1,0.3,0.8C358.4,314.8,358,316.4,357.6,317.4z M364.9,303.8c-0.1,1.1-0.3,1.4-0.5,1.6
					c0.1-0.5,0.2-1.1,0.3-1.9c0,0,0-0.1-0.1-0.1C364.8,303.4,364.9,303.6,364.9,303.8z"/>
				<path class="st0" d="M364.5,301.7c0-0.2,0-0.3,0-0.5c-0.1,0.2-0.2,0.4-0.3,0.6c0,0.1,0.1,0.3,0.1,0.4
					C364.4,302.1,364.5,301.9,364.5,301.7z"/>
				<path class="st0" d="M673.5,184.6l-0.1,0c0.1,0,0.2,0,0.3,0C673.6,184.6,673.6,184.6,673.5,184.6z"/>
				<polygon class="st0" points="344.7,411.7 344.5,411.6 344.5,412.2 				"/>
				<path class="st0" d="M711.3,177.1c0.1,0,0.2,0,0.5,0C711.8,177.1,711.5,177.1,711.3,177.1z"/>
				<path class="st0" d="M727.6,174.2l2.3-0.2C728.9,174.1,728.2,174.1,727.6,174.2z"/>
				<path class="st0" d="M740.3,172.6c0.2-0.1,0.2-0.1,0.2-0.2c0,0,0,0,0,0L740.3,172.6z"/>
				<path class="st0" d="M555.3,248.4c-0.1,0.1-0.3,0.2-0.4,0.3C554.1,249.6,554.7,249.1,555.3,248.4z"/>
				<path class="st0" d="M605.1,214.7c-0.5,0.4-1,0.8-1.5,1.2C604.5,215.5,605.3,215.2,605.1,214.7z"/>
				<path class="st0" d="M506.2,293.6C506.2,293.6,506.2,293.6,506.2,293.6c-0.1,0.1-0.2,0.2-0.3,0.3L506.2,293.6z"/>
				<path class="st0" d="M601.1,217.3c1-0.4,1.8-0.8,2.5-1.3C602.7,216.3,601.8,216.7,601.1,217.3z"/>
				<path class="st0" d="M795.4,169.6l0.6,0c0,0,0,0,0.1,0L795.4,169.6z"/>
				<path class="st0" d="M796.1,169.6l0.7,0C796.5,169.6,796.2,169.6,796.1,169.6z"/>
				<path class="st0" d="M798.3,169.6l-1.4,0C797.3,169.6,797.9,169.6,798.3,169.6z"/>
				<path class="st0" d="M778.5,169.6l-0.2,0.1C778.5,169.7,778.5,169.7,778.5,169.6z"/>
				<path class="st0" d="M773.4,169.8c1.2-0.1,3.1,0.1,4.8,0l0.2-0.1C777.5,169.8,774.6,169.6,773.4,169.8z"/>
				<path class="st0" d="M751.9,169.9l4.3-0.2c-0.8-0.1-1.8-0.1,0.2-0.3C751,169.4,757.6,169.6,751.9,169.9z"/>
				<path class="st0" d="M738.6,171c2.3-0.3-0.1-0.2,0.1-0.3C737.2,171,736.8,171,738.6,171z"/>
				<path class="st0" d="M644.7,193.8l0-0.7C643,193.8,644.7,193.3,644.7,193.8z"/>
				<polygon class="st0" points="628.9,203.9 630.6,203.6 631.2,202.7 				"/>
				<polygon class="st0" points="616.9,204 617.6,203.6 615,205.1 				"/>
				<path class="st0" d="M487.1,301.7l1.2,0.3C489,300.9,488.2,299.9,487.1,301.7z"/>
				<path class="st0" d="M444,356.3c-0.9,0.1-2.6,1-3.2,2.1C442.1,357.5,443.6,356.9,444,356.3z"/>
				<path class="st0" d="M344.8,391.4l0.4-1.4c0,0-0.3,0.6-0.6,1.3c-0.3,0.6-0.5,1.3-0.5,1.3s0.2-0.3,0.3-0.6
					C344.6,391.7,344.8,391.4,344.8,391.4z"/>
			</g>
		</g>
	</g>
</g>
</svg>
